<?xml version="1.0" standalone="no"?>
<!DOCTYPE svg PUBLIC "-//W3C//DTD SVG 20010904//EN"
 "http://www.w3.org/TR/2001/REC-SVG-20010904/DTD/svg10.dtd">
<svg version="1.0" xmlns="http://www.w3.org/2000/svg"
 width="512.000000pt" height="512.000000pt" viewBox="0 0 512.000000 512.000000"
 preserveAspectRatio="xMidYMid meet">
<metadata>
Created by potrace 1.11, written by Peter Selinger 2001-2013
</metadata>
<g transform="translate(0.000000,512.000000) scale(0.100000,-0.100000)"
fill="#000000" stroke="none">
<path d="M1005 4935 c-93 -24 -169 -88 -208 -175 -20 -45 -20 -57 -22 -2165
-1 -1386 1 -2136 8 -2165 22 -98 85 -176 177 -219 l55 -25 903 -1 903 -1 554
556 c305 305 637 639 737 741 l184 186 -1 1519 c-1 1633 1 1560 -52 1632 -39
52 -64 73 -123 101 l-55 26 -1509 0 c-1033 0 -1522 -3 -1551 -10z m3055 -155
c6 -8 10 -11 10 -6 0 15 41 -26 58 -59 14 -27 16 -176 17 -1515 l0 -1485 -22
-22 c-27 -28 27 -25 -563 -27 -337 -2 -497 -6 -526 -14 -53 -15 -128 -69 -163
-118 -55 -76 -55 -77 -56 -638 l0 -518 -24 -19 c-13 -10 -33 -20 -45 -20 -11
-1 -397 -2 -856 -3 -817 -1 -836 -1 -874 19 -49 25 -76 61 -85 111 -4 22 -6
980 -6 2129 l0 2090 22 36 c24 38 53 57 102 67 18 4 700 7 1517 7 1292 -1
1486 -3 1494 -15z"/>
<path d="M1925 4333 c-144 -15 -228 -109 -228 -257 0 -33 -5 -54 -15 -62 -20
-15 -8 -64 28 -109 16 -20 32 -50 35 -68 4 -18 23 -63 43 -101 33 -64 35 -70
21 -95 -15 -27 -16 -27 -210 -85 -91 -27 -153 -65 -189 -116 -17 -25 -23 -48
-25 -112 -3 -74 -2 -82 21 -103 49 -45 236 -107 392 -130 60 -9 275 -9 342 -1
141 18 324 78 379 124 32 26 33 30 34 102 0 86 -14 121 -68 169 -45 40 -86 56
-210 88 -160 40 -176 60 -126 156 16 31 33 77 37 102 3 25 12 49 19 53 21 11
45 64 45 100 0 17 -3 32 -7 32 -5 0 -8 31 -8 68 0 165 -126 264 -310 245z"/>
<path d="M2685 3923 c-1 -40 2 -74 5 -74 3 -1 229 -2 502 -3 435 -1 497 1 501
14 2 8 3 42 3 75 l-1 60 -505 0 -505 0 0 -72z"/>
<path d="M3286 3393 c-4 -4 -141 -8 -304 -8 l-297 0 -1 -65 c0 -36 3 -70 7
-75 5 -7 179 -10 506 -10 l498 0 0 65 c1 36 0 70 -2 75 -2 7 -72 11 -202 10
-110 0 -197 3 -195 7 6 10 0 10 -10 1z"/>
<path d="M1372 2770 c-4 -3 -8 -35 -8 -72 0 -52 3 -67 15 -70 9 -2 534 -4
1166 -3 l1150 0 0 60 c1 33 -1 67 -3 75 -3 14 -133 15 -1158 15 -636 0 -1158
-2 -1162 -5z"/>
<path d="M1366 2160 c-2 -5 0 -121 3 -138 0 -4 524 -7 1164 -7 l1162 0 1 75 0
75 -1164 0 c-640 0 -1165 -2 -1166 -5z"/>
<path d="M2440 1565 c0 -7 -184 -10 -531 -10 -291 0 -533 -2 -537 -5 -10 -7
-10 -133 -1 -140 4 -3 208 -5 453 -5 292 0 446 -3 446 -10 0 -6 3 -6 8 0 4 7
79 11 203 10 l196 0 -2 70 c-2 38 -3 72 -4 75 0 3 -49 5 -108 5 -65 -1 -111 3
-115 10 -5 6 -8 6 -8 0z"/>
<path d="M1366 940 c-2 -5 0 -121 3 -138 0 -4 294 -8 653 -7 l652 0 1 68 c1
37 -1 71 -4 75 -7 9 -1301 11 -1305 2z"/>
</g>
</svg>
